<mxfile host="app.diagrams.net" agent="Mozilla/5.0 (Windows NT 10.0; Win64; x64) AppleWebKit/537.36 (KHTML, like Gecko) Chrome/127.0.0.0 Safari/537.36" version="24.7.6">
  <diagram name="Page-1" id="Zz-o9D7TpzSfHNxAVvlu">
    <mxGraphModel dx="5106" dy="3663" grid="1" gridSize="10" guides="1" tooltips="1" connect="1" arrows="1" fold="1" page="1" pageScale="1" pageWidth="827" pageHeight="1169" math="0" shadow="0">
      <root>
        <mxCell id="0" />
        <mxCell id="1" parent="0" />
        <mxCell id="zuiPq8sw8SvnsuHTt22Z-1" value="" style="rounded=0;whiteSpace=wrap;html=1;" vertex="1" parent="1">
          <mxGeometry x="-2190" y="-1150" width="1920" height="1080" as="geometry" />
        </mxCell>
        <mxCell id="zuiPq8sw8SvnsuHTt22Z-3" value="" style="rounded=0;whiteSpace=wrap;html=1;" vertex="1" parent="1">
          <mxGeometry x="-2190" y="90" width="1920" height="1080" as="geometry" />
        </mxCell>
        <mxCell id="zuiPq8sw8SvnsuHTt22Z-5" value="" style="endArrow=none;html=1;rounded=0;exitX=0.998;exitY=0.064;exitDx=0;exitDy=0;exitPerimeter=0;entryX=0;entryY=0.063;entryDx=0;entryDy=0;entryPerimeter=0;" edge="1" parent="1" source="zuiPq8sw8SvnsuHTt22Z-1" target="zuiPq8sw8SvnsuHTt22Z-1">
          <mxGeometry width="50" height="50" relative="1" as="geometry">
            <mxPoint x="-1250" y="-540" as="sourcePoint" />
            <mxPoint x="-2190" y="-1090" as="targetPoint" />
          </mxGeometry>
        </mxCell>
        <mxCell id="zuiPq8sw8SvnsuHTt22Z-6" value="" style="ellipse;whiteSpace=wrap;html=1;aspect=fixed;" vertex="1" parent="1">
          <mxGeometry x="-350" y="-1140" width="50" height="50" as="geometry" />
        </mxCell>
        <mxCell id="zuiPq8sw8SvnsuHTt22Z-7" value="Log out" style="text;html=1;align=center;verticalAlign=middle;whiteSpace=wrap;rounded=0;fontStyle=0;fontSize=40;fontFamily=Inter;fontSource=https%3A%2F%2Ffonts.googleapis.com%2Fcss%3Ffamily%3DInter;" vertex="1" parent="1">
          <mxGeometry x="-570" y="-1130" width="187" height="30" as="geometry" />
        </mxCell>
        <mxCell id="zuiPq8sw8SvnsuHTt22Z-8" value="&lt;h2&gt;BTSeo&lt;/h2&gt;" style="text;html=1;align=center;verticalAlign=middle;whiteSpace=wrap;rounded=0;fontStyle=0;fontSize=40;fontFamily=Kalnia Glaze;fontSource=https%3A%2F%2Ffonts.googleapis.com%2Fcss%3Ffamily%3DKalnia%2BGlaze;" vertex="1" parent="1">
          <mxGeometry x="-2130" y="-1130" width="187" height="30" as="geometry" />
        </mxCell>
        <mxCell id="zuiPq8sw8SvnsuHTt22Z-10" value="" style="ellipse;whiteSpace=wrap;html=1;aspect=fixed;" vertex="1" parent="1">
          <mxGeometry x="-335" y="-1130" width="20" height="20" as="geometry" />
        </mxCell>
        <mxCell id="zuiPq8sw8SvnsuHTt22Z-13" value="" style="shape=requiredInterface;html=1;verticalLabelPosition=bottom;sketch=0;rotation=-90;" vertex="1" parent="1">
          <mxGeometry x="-332.5" y="-1120" width="15" height="30" as="geometry" />
        </mxCell>
        <mxCell id="zuiPq8sw8SvnsuHTt22Z-14" value="&lt;font style=&quot;font-size: 35px;&quot; data-font-src=&quot;https://fonts.googleapis.com/css?family=Inter&quot; face=&quot;Inter&quot;&gt;PROFILE&lt;/font&gt;" style="html=1;whiteSpace=wrap;" vertex="1" parent="1">
          <mxGeometry x="-900" y="-930" width="260" height="70" as="geometry" />
        </mxCell>
        <mxCell id="zuiPq8sw8SvnsuHTt22Z-17" value="" style="rounded=0;whiteSpace=wrap;html=1;opacity=90;strokeWidth=1;" vertex="1" parent="1">
          <mxGeometry x="-2120" y="-580" width="1790" height="510" as="geometry" />
        </mxCell>
        <mxCell id="zuiPq8sw8SvnsuHTt22Z-18" value="" style="rounded=0;whiteSpace=wrap;html=1;" vertex="1" parent="1">
          <mxGeometry x="-2120" y="-580" width="1790" height="60" as="geometry" />
        </mxCell>
        <mxCell id="zuiPq8sw8SvnsuHTt22Z-27" value="ID" style="text;html=1;align=center;verticalAlign=middle;whiteSpace=wrap;rounded=0;fontSize=30;" vertex="1" parent="1">
          <mxGeometry x="-2097" y="-565" width="60" height="30" as="geometry" />
        </mxCell>
        <mxCell id="zuiPq8sw8SvnsuHTt22Z-28" value="NAME" style="text;html=1;align=center;verticalAlign=middle;whiteSpace=wrap;rounded=0;fontSize=30;" vertex="1" parent="1">
          <mxGeometry x="-1990" y="-565" width="120" height="30" as="geometry" />
        </mxCell>
        <mxCell id="zuiPq8sw8SvnsuHTt22Z-29" value="URL" style="text;html=1;align=center;verticalAlign=middle;whiteSpace=wrap;rounded=0;fontSize=30;" vertex="1" parent="1">
          <mxGeometry x="-1820" y="-565" width="120" height="30" as="geometry" />
        </mxCell>
        <mxCell id="zuiPq8sw8SvnsuHTt22Z-30" value="" style="rounded=0;whiteSpace=wrap;html=1;labelBorderColor=#FFFFFF;" vertex="1" parent="1">
          <mxGeometry x="-2120" y="-510" width="1750" height="60" as="geometry" />
        </mxCell>
        <mxCell id="zuiPq8sw8SvnsuHTt22Z-31" value="1" style="text;html=1;align=center;verticalAlign=middle;whiteSpace=wrap;rounded=0;fontSize=30;" vertex="1" parent="1">
          <mxGeometry x="-2097" y="-495" width="60" height="30" as="geometry" />
        </mxCell>
        <mxCell id="zuiPq8sw8SvnsuHTt22Z-32" value="Peace" style="text;html=1;align=center;verticalAlign=middle;whiteSpace=wrap;rounded=0;fontSize=30;" vertex="1" parent="1">
          <mxGeometry x="-1990" y="-495" width="120" height="30" as="geometry" />
        </mxCell>
        <mxCell id="zuiPq8sw8SvnsuHTt22Z-33" value="https://peacevietnam.com/" style="text;html=1;align=left;verticalAlign=middle;whiteSpace=wrap;rounded=0;fontSize=30;" vertex="1" parent="1">
          <mxGeometry x="-1820" y="-495" width="880" height="30" as="geometry" />
        </mxCell>
        <mxCell id="zuiPq8sw8SvnsuHTt22Z-34" value="" style="whiteSpace=wrap;html=1;aspect=fixed;strokeWidth=2;" vertex="1" parent="1">
          <mxGeometry x="-590" y="-500" width="40" height="40" as="geometry" />
        </mxCell>
        <mxCell id="zuiPq8sw8SvnsuHTt22Z-36" value="" style="whiteSpace=wrap;html=1;aspect=fixed;strokeWidth=2;" vertex="1" parent="1">
          <mxGeometry x="-510" y="-500" width="40" height="40" as="geometry" />
        </mxCell>
        <mxCell id="zuiPq8sw8SvnsuHTt22Z-37" value="" style="triangle;whiteSpace=wrap;html=1;rotation=90;strokeWidth=2;" vertex="1" parent="1">
          <mxGeometry x="-678.12" y="-903.75" width="13.75" height="17.5" as="geometry" />
        </mxCell>
        <mxCell id="zuiPq8sw8SvnsuHTt22Z-39" value="" style="rounded=0;whiteSpace=wrap;html=1;labelBorderColor=#FFFFFF;" vertex="1" parent="1">
          <mxGeometry x="-2120" y="-440" width="1750" height="60" as="geometry" />
        </mxCell>
        <mxCell id="zuiPq8sw8SvnsuHTt22Z-40" value="1" style="text;html=1;align=center;verticalAlign=middle;whiteSpace=wrap;rounded=0;fontSize=30;" vertex="1" parent="1">
          <mxGeometry x="-2097" y="-425" width="60" height="30" as="geometry" />
        </mxCell>
        <mxCell id="zuiPq8sw8SvnsuHTt22Z-41" value="Peace" style="text;html=1;align=center;verticalAlign=middle;whiteSpace=wrap;rounded=0;fontSize=30;" vertex="1" parent="1">
          <mxGeometry x="-1990" y="-425" width="120" height="30" as="geometry" />
        </mxCell>
        <mxCell id="zuiPq8sw8SvnsuHTt22Z-42" value="https://peacevietnam.com/" style="text;html=1;align=left;verticalAlign=middle;whiteSpace=wrap;rounded=0;fontSize=30;" vertex="1" parent="1">
          <mxGeometry x="-1820" y="-425" width="880" height="30" as="geometry" />
        </mxCell>
        <mxCell id="zuiPq8sw8SvnsuHTt22Z-43" value="" style="whiteSpace=wrap;html=1;aspect=fixed;strokeWidth=2;" vertex="1" parent="1">
          <mxGeometry x="-590" y="-430" width="40" height="40" as="geometry" />
        </mxCell>
        <mxCell id="zuiPq8sw8SvnsuHTt22Z-44" value="" style="whiteSpace=wrap;html=1;aspect=fixed;strokeWidth=2;" vertex="1" parent="1">
          <mxGeometry x="-510" y="-430" width="40" height="40" as="geometry" />
        </mxCell>
        <mxCell id="zuiPq8sw8SvnsuHTt22Z-45" value="" style="rounded=0;whiteSpace=wrap;html=1;labelBorderColor=#FFFFFF;" vertex="1" parent="1">
          <mxGeometry x="-2120" y="-370" width="1750" height="60" as="geometry" />
        </mxCell>
        <mxCell id="zuiPq8sw8SvnsuHTt22Z-46" value="1" style="text;html=1;align=center;verticalAlign=middle;whiteSpace=wrap;rounded=0;fontSize=30;" vertex="1" parent="1">
          <mxGeometry x="-2097" y="-355" width="60" height="30" as="geometry" />
        </mxCell>
        <mxCell id="zuiPq8sw8SvnsuHTt22Z-47" value="Peace" style="text;html=1;align=center;verticalAlign=middle;whiteSpace=wrap;rounded=0;fontSize=30;" vertex="1" parent="1">
          <mxGeometry x="-1990" y="-355" width="120" height="30" as="geometry" />
        </mxCell>
        <mxCell id="zuiPq8sw8SvnsuHTt22Z-48" value="https://peacevietnam.com/" style="text;html=1;align=left;verticalAlign=middle;whiteSpace=wrap;rounded=0;fontSize=30;" vertex="1" parent="1">
          <mxGeometry x="-1820" y="-355" width="880" height="30" as="geometry" />
        </mxCell>
        <mxCell id="zuiPq8sw8SvnsuHTt22Z-49" value="" style="whiteSpace=wrap;html=1;aspect=fixed;strokeWidth=2;" vertex="1" parent="1">
          <mxGeometry x="-590" y="-360" width="40" height="40" as="geometry" />
        </mxCell>
        <mxCell id="zuiPq8sw8SvnsuHTt22Z-50" value="" style="whiteSpace=wrap;html=1;aspect=fixed;strokeWidth=2;" vertex="1" parent="1">
          <mxGeometry x="-510" y="-360" width="40" height="40" as="geometry" />
        </mxCell>
        <mxCell id="zuiPq8sw8SvnsuHTt22Z-51" value="" style="rounded=0;whiteSpace=wrap;html=1;labelBorderColor=#FFFFFF;" vertex="1" parent="1">
          <mxGeometry x="-2122.5" y="-300" width="1752.5" height="60" as="geometry" />
        </mxCell>
        <mxCell id="zuiPq8sw8SvnsuHTt22Z-52" value="1" style="text;html=1;align=center;verticalAlign=middle;whiteSpace=wrap;rounded=0;fontSize=30;" vertex="1" parent="1">
          <mxGeometry x="-2099.5" y="-285" width="60" height="30" as="geometry" />
        </mxCell>
        <mxCell id="zuiPq8sw8SvnsuHTt22Z-53" value="Peace" style="text;html=1;align=center;verticalAlign=middle;whiteSpace=wrap;rounded=0;fontSize=30;" vertex="1" parent="1">
          <mxGeometry x="-1992.5" y="-285" width="120" height="30" as="geometry" />
        </mxCell>
        <mxCell id="zuiPq8sw8SvnsuHTt22Z-54" value="https://peacevietnam.com/" style="text;html=1;align=left;verticalAlign=middle;whiteSpace=wrap;rounded=0;fontSize=30;" vertex="1" parent="1">
          <mxGeometry x="-1822.5" y="-285" width="880" height="30" as="geometry" />
        </mxCell>
        <mxCell id="zuiPq8sw8SvnsuHTt22Z-55" value="" style="whiteSpace=wrap;html=1;aspect=fixed;strokeWidth=2;" vertex="1" parent="1">
          <mxGeometry x="-590" y="-290" width="40" height="40" as="geometry" />
        </mxCell>
        <mxCell id="zuiPq8sw8SvnsuHTt22Z-56" value="" style="whiteSpace=wrap;html=1;aspect=fixed;strokeWidth=2;" vertex="1" parent="1">
          <mxGeometry x="-510" y="-290" width="40" height="40" as="geometry" />
        </mxCell>
        <mxCell id="zuiPq8sw8SvnsuHTt22Z-57" value="" style="rounded=0;whiteSpace=wrap;html=1;labelBorderColor=#FFFFFF;" vertex="1" parent="1">
          <mxGeometry x="-2120" y="-230" width="1750" height="60" as="geometry" />
        </mxCell>
        <mxCell id="zuiPq8sw8SvnsuHTt22Z-58" value="1" style="text;html=1;align=center;verticalAlign=middle;whiteSpace=wrap;rounded=0;fontSize=30;" vertex="1" parent="1">
          <mxGeometry x="-2097" y="-215" width="60" height="30" as="geometry" />
        </mxCell>
        <mxCell id="zuiPq8sw8SvnsuHTt22Z-59" value="Peace" style="text;html=1;align=center;verticalAlign=middle;whiteSpace=wrap;rounded=0;fontSize=30;" vertex="1" parent="1">
          <mxGeometry x="-1990" y="-215" width="120" height="30" as="geometry" />
        </mxCell>
        <mxCell id="zuiPq8sw8SvnsuHTt22Z-60" value="https://peacevietnam.com/" style="text;html=1;align=left;verticalAlign=middle;whiteSpace=wrap;rounded=0;fontSize=30;" vertex="1" parent="1">
          <mxGeometry x="-1820" y="-215" width="880" height="30" as="geometry" />
        </mxCell>
        <mxCell id="zuiPq8sw8SvnsuHTt22Z-61" value="" style="whiteSpace=wrap;html=1;aspect=fixed;strokeWidth=2;" vertex="1" parent="1">
          <mxGeometry x="-590" y="-220" width="40" height="40" as="geometry" />
        </mxCell>
        <mxCell id="zuiPq8sw8SvnsuHTt22Z-62" value="" style="whiteSpace=wrap;html=1;aspect=fixed;strokeWidth=2;" vertex="1" parent="1">
          <mxGeometry x="-510" y="-220" width="40" height="40" as="geometry" />
        </mxCell>
        <mxCell id="zuiPq8sw8SvnsuHTt22Z-63" value="" style="rounded=0;whiteSpace=wrap;html=1;labelBorderColor=#FFFFFF;" vertex="1" parent="1">
          <mxGeometry x="-2120" y="-160" width="1750" height="60" as="geometry" />
        </mxCell>
        <mxCell id="zuiPq8sw8SvnsuHTt22Z-64" value="1" style="text;html=1;align=center;verticalAlign=middle;whiteSpace=wrap;rounded=0;fontSize=30;" vertex="1" parent="1">
          <mxGeometry x="-2097" y="-145" width="60" height="30" as="geometry" />
        </mxCell>
        <mxCell id="zuiPq8sw8SvnsuHTt22Z-65" value="Peace" style="text;html=1;align=center;verticalAlign=middle;whiteSpace=wrap;rounded=0;fontSize=30;" vertex="1" parent="1">
          <mxGeometry x="-1990" y="-145" width="120" height="30" as="geometry" />
        </mxCell>
        <mxCell id="zuiPq8sw8SvnsuHTt22Z-66" value="https://peacevietnam.com/" style="text;html=1;align=left;verticalAlign=middle;whiteSpace=wrap;rounded=0;fontSize=30;" vertex="1" parent="1">
          <mxGeometry x="-1820" y="-145" width="880" height="30" as="geometry" />
        </mxCell>
        <mxCell id="zuiPq8sw8SvnsuHTt22Z-67" value="" style="whiteSpace=wrap;html=1;aspect=fixed;strokeWidth=2;" vertex="1" parent="1">
          <mxGeometry x="-590" y="-150" width="40" height="40" as="geometry" />
        </mxCell>
        <mxCell id="zuiPq8sw8SvnsuHTt22Z-68" value="" style="whiteSpace=wrap;html=1;aspect=fixed;strokeWidth=2;" vertex="1" parent="1">
          <mxGeometry x="-510" y="-150" width="40" height="40" as="geometry" />
        </mxCell>
        <mxCell id="zuiPq8sw8SvnsuHTt22Z-70" value="" style="rounded=0;whiteSpace=wrap;html=1;fillColor=#E8E8E8;" vertex="1" parent="1">
          <mxGeometry x="-360" y="-510" width="17.5" height="140" as="geometry" />
        </mxCell>
      </root>
    </mxGraphModel>
  </diagram>
</mxfile>
